<svg height="512pt" viewBox="-59 0 512 512.00505" width="512pt" xmlns="http://www.w3.org/2000/svg"><path d="m386.9375 294.113281-18.78125-60.699219c-.910156-2.933593-3.621094-4.933593-6.691406-4.933593h-112.402344c-6.417969 0-9.433594-7.890625-4.683594-12.207031 24.394532-22.164063 59.042969-68.273438 34.316406-138.292969-.085937-.25-.175781-.496094-.269531-.738281-10.421875-27.746094-32.179687-52.996094-59.605469-64.722657-46.933593-20.070312-91.9375 23.171875-106.867187 65.460938-24.726563 70.023437 9.917969 116.128906 34.3125 138.292969 4.75 4.316406 1.734375 12.207031-4.683594 12.207031h-108.320312c-3.070313 0-5.785157 2-6.691407 4.933593l-18.78125 60.699219c-1.445312 4.671875 2.222657 9.351563 7.109376 9.0625l134.878906-8.066406c4.351562-.257813 7.882812 3.480469 7.371094 7.8125l-22.847657 193.785156c-.488281 4.164063 2.765625 7.824219 6.957031 7.824219h109.46875c4.195313 0 7.445313-3.660156 6.957032-7.824219l-22.867188-193.949219c-.511718-4.332031 3.019532-8.070312 7.375-7.8125l137.636719 8.226563c4.886719.292969 8.554687-4.386719 7.109375-9.058594zm0 0" fill="#0396fd"/><path d="m379.828125 303.175781-11.753906-.707031-14.914063-48.199219c-.90625-2.941406-3.625-4.941406-6.695312-4.941406-5.5625 0-11.125 0-16.6875 0-22.082032 0-44.195313.359375-66.269532 0-11.277343-.183594-34.328124 2.507813-41.484374-8.5-6.675782-10.265625-.257813-21.300781 6.855468-29.339844 18.746094-21.1875 33.046875-41.726562 36.820313-70.683593 3.472656-26.613282-2.574219-54.398438-17.675781-76.421876-9.394532-13.699218-21.808594-25.328124-35.832032-34.191406-7.128906-4.507812-15.007812-8.800781-23.183594-11.003906-5.804687-1.5625-20.925781-6.101562-26.542968-3.039062 17.023437-9.285157 36.523437-12.113282 56.355468-3.636719 27.429688 11.738281 49.1875 36.984375 59.609376 64.730469.089843.246093.179687.488281.269531.734374 24.714843 70.03125-9.925781 116.136719-34.324219 138.292969-4.75 4.316407-1.734375 12.214844 4.683594 12.214844h112.410156c3.066406 0 5.777344 1.992187 6.683594 4.929687l18.78125 60.695313c1.453125 4.683594-2.222656 9.355469-7.105469 9.066406zm0 0" fill="#0077f0"/><path d="m240.742188 99.257812s-4.242188-17.5-18.21875-31.261718c-13.894532-13.683594-36.425782-13.683594-50.320313 0-13.976563 13.761718-18.21875 31.261718-18.21875 31.261718-11.601563 44.621094 23.339844 74.953126 37.605469 85.203126 3.453125 2.480468 8.097656 2.480468 11.546875 0 14.265625-10.25 49.207031-40.582032 37.605469-85.203126zm0 0" fill="#efe2dd"/><path d="m203.140625 184.460938c-3.457031 2.480468-8.101563 2.480468-11.558594 0-1.523437-1.097657-3.285156-2.421876-5.199219-3.976563 16-12.929687 42.75-41.375 32.398438-81.226563 0 0-4.242188-17.492187-18.222656-31.261718-4.113282-4.054688-8.984375-6.902344-14.175782-8.558594 12.304688-3.914062 26.359376-1.066406 36.136719 8.558594 13.976563 13.769531 18.21875 31.261718 18.21875 31.261718 11.609375 44.625-23.339843 74.949219-37.597656 85.203126zm0 0" fill="#e1d3ce"/><path d="m394.074219 291.902344-18.78125-60.699219c-1.886719-6.097656-7.445313-10.195313-13.828125-10.195313h-111.191406c24.195312-22.324218 60.121093-69.730468 36.917968-141.234374-1.277344-3.925782-5.488281-6.074219-9.414062-4.800782-3.925782 1.273438-6.078125 5.488282-4.804688 9.414063 9.15625 28.210937 8.988282 54.898437-.5 79.335937-8.390625 21.617188-22.644531 37.5-33.121094 47.019532-4.472656 4.066406-5.960937 10.335937-3.78125 15.96875 2.167969 5.613281 7.464844 9.242187 13.492188 9.242187h112.054688l18.480468 59.722656-136.964844-8.1875c-4.296874-.253906-8.4375 1.390625-11.386718 4.515625-2.949219 3.125-4.351563 7.363282-3.851563 11.628906l22.804688 193.429688h-108.414063l8.054688-68.335938c.484375-4.097656-2.445313-7.8125-6.546875-8.296874-4.101563-.488282-7.8125 2.449218-8.292969 6.546874l-8.117188 68.859376c-.484374 4.101562.8125 8.226562 3.554688 11.3125 2.746094 3.085937 6.6875 4.855468 10.820312 4.855468h109.46875c4.132813 0 8.074219-1.769531 10.816407-4.855468 2.746093-3.085938 4.042969-7.210938 3.558593-11.3125l-22.800781-193.394532 137.082031 8.195313c4.742188.28125 9.320313-1.78125 12.25-5.519531 2.933594-3.734376 3.847657-8.675782 2.441407-13.214844zm0 0"/><path d="m140.484375 380.441406c-.484375 4.097656 2.449219 7.8125 6.546875 8.292969.296875.035156.59375.054687.882812.054687 3.738282 0 6.964844-2.796874 7.414063-6.597656l9.242187-78.394531c.5-4.269531-.902343-8.507813-3.851562-11.632813-2.949219-3.121093-7.09375-4.761718-11.390625-4.511718l-134.203125 8.023437 18.480469-59.726562h107.972656c6.027344 0 11.324219-3.625 13.496094-9.242188 2.175781-5.632812.691406-11.898437-3.785157-15.96875-10.742187-9.757812-25.289062-26.058593-33.601562-48.285156-9.4375-25.226563-8.996094-52.8125 1.308594-81.988281 9.492187-26.886719 30.113281-50.617188 52.53125-60.457032 15-6.582031 29.925781-6.792968 44.355468-.621093 13.472657 5.761719 26.089844 15.390625 36.484376 27.84375 2.644531 3.167969 7.355468 3.59375 10.527343.949219 3.167969-2.644532 3.589844-7.355469.945313-10.523438-11.894532-14.257812-26.449219-25.328125-42.082032-32.011719-18.121093-7.75-37.566406-7.515625-56.234374.679688-26.019532 11.417969-49.8125 38.570312-60.617188 69.164062-26.046875 73.757813 10.578125 122.550781 35.46875 145.515625h-107.113281c-6.386719 0-11.941407 4.097656-13.832031 10.195313l-18.78125 60.699219c-1.402344 4.539062-.492188 9.480468 2.441406 13.214843 2.929687 3.738281 7.519531 5.800781 12.25 5.515625l134.324218-8.03125zm0 0"/><path d="m166.960938 62.671875c-14.992188 14.761719-19.839844 33.222656-20.21875 34.75-5.527344 21.292969-2.15625 41.917969 10.015624 61.300781 9.871094 15.71875 23.328126 26.675782 30.472657 31.804688 3.027343 2.175781 6.582031 3.265625 10.132812 3.265625s7.101563-1.089844 10.132813-3.265625c7.140625-5.132813 20.601562-16.085938 30.46875-31.804688 12.171875-19.382812 15.542968-40.007812 10.019531-61.300781-.382813-1.527344-5.230469-19.988281-20.222656-34.75-16.761719-16.507813-44.039063-16.503906-60.800781 0zm66.546874 38.464844c10.34375 39.777343-20.84375 67.277343-34.730468 77.253906-.847656.609375-1.984375.609375-2.828125 0-13.890625-9.976563-45.074219-37.476563-34.734375-77.253906.007812-.023438.019531-.070313.027344-.097657.035156-.15625 4.015624-15.714843 16.203124-27.71875 5.492188-5.40625 12.703126-8.109374 19.917969-8.109374 7.210938 0 14.425781 2.703124 19.917969 8.109374 12.1875 12.003907 16.164062 27.5625 16.203125 27.71875.007813.03125.015625.066407.023437.097657zm0 0"/></svg>